<mxfile host="app.diagrams.net" modified="2020-11-10T05:42:36.512Z" agent="5.0 (Macintosh; Intel Mac OS X 10_15_3) AppleWebKit/537.36 (KHTML, like Gecko) Chrome/86.0.4240.183 Safari/537.36" etag="N84K0tVXhgL8lutEgWVE" version="13.9.2" type="github">
  <diagram id="EziPpQiDpVYwORdNoaG9" name="Page-1">
    <mxGraphModel dx="788" dy="436" grid="1" gridSize="10" guides="1" tooltips="1" connect="1" arrows="1" fold="1" page="1" pageScale="1" pageWidth="827" pageHeight="1169" math="0" shadow="0">
      <root>
        <mxCell id="0" />
        <mxCell id="1" parent="0" />
        <mxCell id="RxH3iXv233im7X_MCqQd-1" value="owner" style="rounded=1;whiteSpace=wrap;html=1;" vertex="1" parent="1">
          <mxGeometry x="350" y="240" width="80" height="60" as="geometry" />
        </mxCell>
        <mxCell id="RxH3iXv233im7X_MCqQd-2" value="farmland" style="rounded=1;whiteSpace=wrap;html=1;" vertex="1" parent="1">
          <mxGeometry x="140" y="240" width="80" height="60" as="geometry" />
        </mxCell>
        <mxCell id="RxH3iXv233im7X_MCqQd-3" value="farmer" style="rounded=1;whiteSpace=wrap;html=1;" vertex="1" parent="1">
          <mxGeometry x="580" y="240" width="80" height="60" as="geometry" />
        </mxCell>
        <mxCell id="RxH3iXv233im7X_MCqQd-5" value="lending" style="rhombus;whiteSpace=wrap;html=1;" vertex="1" parent="1">
          <mxGeometry x="470" y="250" width="80" height="50" as="geometry" />
        </mxCell>
        <mxCell id="RxH3iXv233im7X_MCqQd-6" value="hold" style="rhombus;whiteSpace=wrap;html=1;" vertex="1" parent="1">
          <mxGeometry x="250" y="245" width="80" height="50" as="geometry" />
        </mxCell>
        <mxCell id="RxH3iXv233im7X_MCqQd-7" value="location" style="ellipse;whiteSpace=wrap;html=1;" vertex="1" parent="1">
          <mxGeometry x="140" y="180" width="60" height="40" as="geometry" />
        </mxCell>
        <mxCell id="RxH3iXv233im7X_MCqQd-8" value="oname" style="ellipse;whiteSpace=wrap;html=1;" vertex="1" parent="1">
          <mxGeometry x="360" y="180" width="60" height="40" as="geometry" />
        </mxCell>
        <mxCell id="RxH3iXv233im7X_MCqQd-9" value="fname" style="ellipse;whiteSpace=wrap;html=1;" vertex="1" parent="1">
          <mxGeometry x="590" y="180" width="60" height="40" as="geometry" />
        </mxCell>
        <mxCell id="RxH3iXv233im7X_MCqQd-10" value="oname" style="ellipse;whiteSpace=wrap;html=1;" vertex="1" parent="1">
          <mxGeometry x="460" y="190" width="50" height="40" as="geometry" />
        </mxCell>
        <mxCell id="RxH3iXv233im7X_MCqQd-11" value="oname" style="ellipse;whiteSpace=wrap;html=1;" vertex="1" parent="1">
          <mxGeometry x="280" y="180" width="60" height="40" as="geometry" />
        </mxCell>
        <mxCell id="RxH3iXv233im7X_MCqQd-12" value="" style="endArrow=none;html=1;exitX=1;exitY=0.5;exitDx=0;exitDy=0;entryX=0;entryY=0.5;entryDx=0;entryDy=0;" edge="1" parent="1" source="RxH3iXv233im7X_MCqQd-2" target="RxH3iXv233im7X_MCqQd-6">
          <mxGeometry width="50" height="50" relative="1" as="geometry">
            <mxPoint x="370" y="280" as="sourcePoint" />
            <mxPoint x="420" y="230" as="targetPoint" />
          </mxGeometry>
        </mxCell>
        <mxCell id="RxH3iXv233im7X_MCqQd-13" value="" style="endArrow=none;html=1;exitX=1;exitY=0.5;exitDx=0;exitDy=0;entryX=0;entryY=0.5;entryDx=0;entryDy=0;" edge="1" parent="1" source="RxH3iXv233im7X_MCqQd-6" target="RxH3iXv233im7X_MCqQd-1">
          <mxGeometry width="50" height="50" relative="1" as="geometry">
            <mxPoint x="370" y="280" as="sourcePoint" />
            <mxPoint x="420" y="230" as="targetPoint" />
          </mxGeometry>
        </mxCell>
        <mxCell id="RxH3iXv233im7X_MCqQd-14" value="" style="endArrow=none;html=1;entryX=0;entryY=0.5;entryDx=0;entryDy=0;exitX=1;exitY=0.5;exitDx=0;exitDy=0;" edge="1" parent="1" source="RxH3iXv233im7X_MCqQd-1" target="RxH3iXv233im7X_MCqQd-5">
          <mxGeometry width="50" height="50" relative="1" as="geometry">
            <mxPoint x="370" y="280" as="sourcePoint" />
            <mxPoint x="420" y="230" as="targetPoint" />
          </mxGeometry>
        </mxCell>
        <mxCell id="RxH3iXv233im7X_MCqQd-15" value="" style="endArrow=none;html=1;entryX=0;entryY=0.5;entryDx=0;entryDy=0;exitX=1;exitY=0.5;exitDx=0;exitDy=0;" edge="1" parent="1" source="RxH3iXv233im7X_MCqQd-5" target="RxH3iXv233im7X_MCqQd-3">
          <mxGeometry width="50" height="50" relative="1" as="geometry">
            <mxPoint x="370" y="280" as="sourcePoint" />
            <mxPoint x="420" y="230" as="targetPoint" />
          </mxGeometry>
        </mxCell>
        <mxCell id="RxH3iXv233im7X_MCqQd-16" value="N" style="text;html=1;strokeColor=none;fillColor=none;align=center;verticalAlign=middle;whiteSpace=wrap;rounded=0;" vertex="1" parent="1">
          <mxGeometry x="230" y="245" width="40" height="20" as="geometry" />
        </mxCell>
        <mxCell id="RxH3iXv233im7X_MCqQd-17" value="M" style="text;html=1;strokeColor=none;fillColor=none;align=center;verticalAlign=middle;whiteSpace=wrap;rounded=0;" vertex="1" parent="1">
          <mxGeometry x="310" y="245" width="40" height="20" as="geometry" />
        </mxCell>
        <mxCell id="RxH3iXv233im7X_MCqQd-18" value="N:M" style="text;html=1;strokeColor=none;fillColor=none;align=center;verticalAlign=middle;whiteSpace=wrap;rounded=0;" vertex="1" parent="1">
          <mxGeometry x="270" y="300" width="40" height="20" as="geometry" />
        </mxCell>
        <mxCell id="RxH3iXv233im7X_MCqQd-19" value="N:M" style="text;html=1;strokeColor=none;fillColor=none;align=center;verticalAlign=middle;whiteSpace=wrap;rounded=0;" vertex="1" parent="1">
          <mxGeometry x="490" y="310" width="40" height="20" as="geometry" />
        </mxCell>
        <mxCell id="RxH3iXv233im7X_MCqQd-20" value="M" style="text;html=1;strokeColor=none;fillColor=none;align=center;verticalAlign=middle;whiteSpace=wrap;rounded=0;" vertex="1" parent="1">
          <mxGeometry x="530" y="240" width="40" height="20" as="geometry" />
        </mxCell>
        <mxCell id="RxH3iXv233im7X_MCqQd-21" value="N" style="text;html=1;strokeColor=none;fillColor=none;align=center;verticalAlign=middle;whiteSpace=wrap;rounded=0;" vertex="1" parent="1">
          <mxGeometry x="450" y="245" width="40" height="20" as="geometry" />
        </mxCell>
        <mxCell id="RxH3iXv233im7X_MCqQd-22" value="location" style="ellipse;whiteSpace=wrap;html=1;" vertex="1" parent="1">
          <mxGeometry x="210" y="180" width="60" height="40" as="geometry" />
        </mxCell>
        <mxCell id="RxH3iXv233im7X_MCqQd-23" value="fname" style="ellipse;whiteSpace=wrap;html=1;" vertex="1" parent="1">
          <mxGeometry x="510" y="190" width="50" height="40" as="geometry" />
        </mxCell>
        <mxCell id="RxH3iXv233im7X_MCqQd-24" value="" style="endArrow=none;html=1;entryX=0.5;entryY=1;entryDx=0;entryDy=0;exitX=0.5;exitY=0;exitDx=0;exitDy=0;" edge="1" parent="1" source="RxH3iXv233im7X_MCqQd-2" target="RxH3iXv233im7X_MCqQd-7">
          <mxGeometry width="50" height="50" relative="1" as="geometry">
            <mxPoint x="370" y="280" as="sourcePoint" />
            <mxPoint x="420" y="230" as="targetPoint" />
          </mxGeometry>
        </mxCell>
        <mxCell id="RxH3iXv233im7X_MCqQd-25" value="" style="endArrow=none;html=1;entryX=0.5;entryY=1;entryDx=0;entryDy=0;exitX=0;exitY=0;exitDx=0;exitDy=0;" edge="1" parent="1" source="RxH3iXv233im7X_MCqQd-6" target="RxH3iXv233im7X_MCqQd-22">
          <mxGeometry width="50" height="50" relative="1" as="geometry">
            <mxPoint x="370" y="280" as="sourcePoint" />
            <mxPoint x="420" y="230" as="targetPoint" />
          </mxGeometry>
        </mxCell>
        <mxCell id="RxH3iXv233im7X_MCqQd-26" value="" style="endArrow=none;html=1;entryX=0.5;entryY=1;entryDx=0;entryDy=0;exitX=1;exitY=0;exitDx=0;exitDy=0;" edge="1" parent="1" source="RxH3iXv233im7X_MCqQd-6" target="RxH3iXv233im7X_MCqQd-11">
          <mxGeometry width="50" height="50" relative="1" as="geometry">
            <mxPoint x="370" y="280" as="sourcePoint" />
            <mxPoint x="420" y="230" as="targetPoint" />
          </mxGeometry>
        </mxCell>
        <mxCell id="RxH3iXv233im7X_MCqQd-27" value="" style="endArrow=none;html=1;entryX=0.5;entryY=1;entryDx=0;entryDy=0;exitX=0.5;exitY=0;exitDx=0;exitDy=0;" edge="1" parent="1" source="RxH3iXv233im7X_MCqQd-1" target="RxH3iXv233im7X_MCqQd-8">
          <mxGeometry width="50" height="50" relative="1" as="geometry">
            <mxPoint x="370" y="280" as="sourcePoint" />
            <mxPoint x="420" y="230" as="targetPoint" />
          </mxGeometry>
        </mxCell>
        <mxCell id="RxH3iXv233im7X_MCqQd-28" value="" style="endArrow=none;html=1;entryX=0.5;entryY=1;entryDx=0;entryDy=0;exitX=1;exitY=1;exitDx=0;exitDy=0;" edge="1" parent="1" source="RxH3iXv233im7X_MCqQd-21" target="RxH3iXv233im7X_MCqQd-10">
          <mxGeometry width="50" height="50" relative="1" as="geometry">
            <mxPoint x="370" y="280" as="sourcePoint" />
            <mxPoint x="420" y="230" as="targetPoint" />
          </mxGeometry>
        </mxCell>
        <mxCell id="RxH3iXv233im7X_MCqQd-29" value="" style="endArrow=none;html=1;entryX=0.5;entryY=1;entryDx=0;entryDy=0;exitX=1;exitY=0;exitDx=0;exitDy=0;" edge="1" parent="1" source="RxH3iXv233im7X_MCqQd-5" target="RxH3iXv233im7X_MCqQd-23">
          <mxGeometry width="50" height="50" relative="1" as="geometry">
            <mxPoint x="370" y="280" as="sourcePoint" />
            <mxPoint x="420" y="230" as="targetPoint" />
          </mxGeometry>
        </mxCell>
        <mxCell id="RxH3iXv233im7X_MCqQd-30" value="" style="endArrow=none;html=1;entryX=0.5;entryY=1;entryDx=0;entryDy=0;exitX=0.5;exitY=0;exitDx=0;exitDy=0;" edge="1" parent="1" source="RxH3iXv233im7X_MCqQd-3" target="RxH3iXv233im7X_MCqQd-9">
          <mxGeometry width="50" height="50" relative="1" as="geometry">
            <mxPoint x="370" y="280" as="sourcePoint" />
            <mxPoint x="420" y="230" as="targetPoint" />
          </mxGeometry>
        </mxCell>
        <mxCell id="RxH3iXv233im7X_MCqQd-31" value="crops" style="ellipse;whiteSpace=wrap;html=1;" vertex="1" parent="1">
          <mxGeometry x="150" y="320" width="60" height="40" as="geometry" />
        </mxCell>
        <mxCell id="RxH3iXv233im7X_MCqQd-32" value="favorite&lt;br&gt;vegetable" style="ellipse;whiteSpace=wrap;html=1;" vertex="1" parent="1">
          <mxGeometry x="590" y="310" width="70" height="40" as="geometry" />
        </mxCell>
        <mxCell id="RxH3iXv233im7X_MCqQd-33" value="" style="endArrow=none;html=1;entryX=0.5;entryY=1;entryDx=0;entryDy=0;exitX=0.5;exitY=0;exitDx=0;exitDy=0;" edge="1" parent="1" source="RxH3iXv233im7X_MCqQd-32" target="RxH3iXv233im7X_MCqQd-3">
          <mxGeometry width="50" height="50" relative="1" as="geometry">
            <mxPoint x="370" y="270" as="sourcePoint" />
            <mxPoint x="420" y="220" as="targetPoint" />
          </mxGeometry>
        </mxCell>
        <mxCell id="RxH3iXv233im7X_MCqQd-34" value="" style="endArrow=none;html=1;entryX=0.5;entryY=1;entryDx=0;entryDy=0;exitX=0.5;exitY=0;exitDx=0;exitDy=0;" edge="1" parent="1" source="RxH3iXv233im7X_MCqQd-31" target="RxH3iXv233im7X_MCqQd-2">
          <mxGeometry width="50" height="50" relative="1" as="geometry">
            <mxPoint x="470" y="330" as="sourcePoint" />
            <mxPoint x="630" y="310" as="targetPoint" />
          </mxGeometry>
        </mxCell>
      </root>
    </mxGraphModel>
  </diagram>
</mxfile>
